<?xml version="1.0" encoding="UTF-8" standalone="no"?>
<!DOCTYPE svg PUBLIC "-//W3C//DTD SVG 1.1//EN" "http://www.w3.org/Graphics/SVG/1.1/DTD/svg11.dtd">
<svg width="100%" height="100%" viewBox="0 0 7588 4119" version="1.1" xmlns="http://www.w3.org/2000/svg" xmlns:xlink="http://www.w3.org/1999/xlink" xml:space="preserve" xmlns:serif="http://www.serif.com/" style="fill-rule:evenodd;clip-rule:evenodd;stroke-linejoin:round;stroke-miterlimit:2;">
    <g id="ArtBoard1" transform="matrix(0.926219,0,0,0.831288,0,-1292)">
        <rect x="0" y="1554.21" width="8192" height="4954.06" style="fill:none;"/>
        <g transform="matrix(93.6694,0,0,104.366,4096.09,-110649)">
            <g id="Ebene-1" serif:id="Ebene 1">
                <g id="g3536">
                    <path id="path2714" d="M0,1075.37L-6.315,1111.18L-19.562,1103.62L-10.3,1116.85L-43.464,1122.52L-8.315,1122.52C-8.314,1117.93 -4.59,1114.2 0,1114.2C4.59,1114.2 8.315,1117.93 8.315,1122.52L43.465,1122.52L10.3,1116.85L19.563,1103.62L6.314,1111.18L0,1075.37ZM0,1115.89C-3.663,1115.89 -6.315,1118.86 -6.315,1122.52L-2.834,1122.52C-2.834,1120.84 -1.676,1119.68 0,1119.68C1.676,1119.68 2.835,1120.84 2.835,1122.52L6.314,1122.52C6.314,1118.86 3.662,1115.89 0,1115.89Z" style="fill:white;fill-rule:nonzero;"/>
                    <path id="path2716" d="M-3.28,1085.67C-21.867,1087.67 -37.807,1102.82 -39.208,1121.14C-36.491,1105.67 -20.497,1091.95 -3.946,1089.45L-3.28,1085.67ZM3.28,1085.67L3.946,1089.45C20.278,1092.13 36.548,1105.83 39.252,1121.14C37.863,1102.99 21.632,1087.88 3.28,1085.67Z" style="fill:rgb(247,158,2);fill-rule:nonzero;"/>
                </g>
            </g>
        </g>
    </g>
</svg>
