<?xml version="1.0" encoding="UTF-8" standalone="no"?><!DOCTYPE svg PUBLIC "-//W3C//DTD SVG 1.1//EN" "http://www.w3.org/Graphics/SVG/1.1/DTD/svg11.dtd"><svg width="100%" height="100%" viewBox="0 0 7588 4847" version="1.1" xmlns="http://www.w3.org/2000/svg" xmlns:xlink="http://www.w3.org/1999/xlink" xml:space="preserve" xmlns:serif="http://www.serif.com/" style="fill-rule:evenodd;clip-rule:evenodd;stroke-linejoin:round;stroke-miterlimit:2;"><g id="ArtBoard1"><rect x="0" y="-0" width="7587.59" height="4846.13" style="fill:none;"/><g><g id="Ebene-1" serif:id="Ebene 1"><g id="g3536"><path id="path2714" d="M3793.49,22.989l-547.879,3106.82l-1149.29,-655.893l803.556,1147.81l-2877.26,491.92l3049.47,0c0.087,-398.221 323.175,-721.829 721.396,-721.829c398.221,-0 721.396,323.608 721.396,721.829l3049.56,0l-2877.34,-491.92l803.643,-1147.81l-1149.46,655.893l-547.793,-3106.82Zm0,3515.45c-317.796,0 -547.879,257.673 -547.879,575.208l302.006,0c0,-145.754 100.466,-246.393 245.873,-246.393c145.407,-0 245.96,100.639 245.96,246.393l301.833,0c-0,-317.535 -230.083,-575.208 -547.793,-575.208Z" style="fill:#fff;fill-rule:nonzero;"/><path id="path2716" d="M3508.92,916.6c-1612.58,173.517 -2995.51,1487.91 -3117.06,3077.32c235.722,-1342.15 1623.34,-2532.48 3059.27,-2749.37l57.781,-327.947Zm569.135,-0l57.781,327.947c1416.94,232.512 2828.5,1421.1 3063.09,2749.37c-120.507,-1574.66 -1528.68,-2885.58 -3120.87,-3077.32Z" style="fill:#f79e02;fill-rule:nonzero;"/><g><path d="M22.39,4834.56l123.54,0l-0,-373.39l278.517,373.39l124.381,0l-0,-577.746l-124.381,0l-0,373.391l-278.517,-373.391l-123.54,0l0,577.746Z" style="fill:#fff;fill-rule:nonzero;"/><path d="M952.618,4844.65c167.432,-0 306.958,-137.005 306.958,-299.386c0,-162.381 -139.526,-298.547 -306.958,-298.547c-165.749,-0 -306.956,136.166 -306.956,298.547c-0,162.381 141.207,299.386 306.956,299.386Zm0,-112.606c-96.757,0 -179.211,-85.818 -179.211,-186.78c0,-100.121 82.454,-185.942 179.211,-185.942c97.599,-0 180.054,85.821 180.054,185.942c-0,100.962 -82.455,186.78 -180.054,186.78Z" style="fill:#fff;fill-rule:nonzero;"/><path d="M1839.95,4834.56l-142.048,-201.856c79.006,-27.731 131.113,-94.958 131.113,-180.802c0,-114.415 -92.447,-195.088 -217.788,-195.088l-259.864,0l-0,577.746l123.539,0l0,-187.57l91.725,-0l132.116,187.57l141.207,0Zm-365.048,-464.3l122.861,0c61.43,0 103.507,31.984 103.507,81.642c-0,49.658 -42.077,81.641 -103.507,81.641l-122.861,0l0,-163.283Z" style="fill:#fff;fill-rule:nonzero;"/><path d="M1926.69,4834.56l206.842,0c194.37,0 332.213,-120.178 332.213,-289.295c-0,-169.117 -137.843,-288.451 -332.213,-288.451l-206.842,0l0,577.746Zm123.54,-112.605l0,-352.536l99.289,0c110.227,0 188.48,73.198 188.48,175.846c0,103.49 -78.253,176.69 -188.48,176.69l-99.289,-0Z" style="fill:#fff;fill-rule:nonzero;"/><path d="M2681.91,4722.79l0,-465.982l-124.381,0l0,577.746l412.045,0l0,-111.764l-287.664,-0Z" style="fill:#fff;fill-rule:nonzero;"/><path d="M3473.44,4834.56l139.6,0l-235.472,-577.746l-138.762,0l-235.475,577.746l138.762,0l37.003,-90.841l257.341,-0l37.003,90.841Zm-251.454,-195.876l85.78,-211.122l85.78,211.122l-171.56,-0Z" style="fill:#fff;fill-rule:nonzero;"/><path d="M3686.32,4834.56l123.539,0l0,-373.39l278.517,373.39l124.381,0l0,-577.746l-124.381,0l0,373.391l-278.517,-373.391l-123.539,0l-0,577.746Z" style="fill:#fff;fill-rule:nonzero;"/><path d="M4337.35,4834.56l206.842,0c194.37,0 332.213,-120.178 332.213,-289.295c-0,-169.117 -137.843,-288.451 -332.213,-288.451l-206.842,0l0,577.746Zm123.54,-112.605l0,-352.536l99.289,0c110.227,0 188.48,73.198 188.48,175.846c0,103.49 -78.253,176.69 -188.48,176.69l-99.289,-0Z" style="fill:#fff;fill-rule:nonzero;"/><rect x="4953.05" y="4551.2" width="230.362" height="104.194" style="fill:#fff;fill-rule:nonzero;"/><path d="M5278.56,4834.56l123.54,0l0,-187.57l136.325,-0c125.34,-0 217.788,-80.673 217.788,-195.088c-0,-114.415 -92.448,-195.088 -217.788,-195.088l-259.865,0l0,577.746Zm123.54,-301.017l0,-163.283l122.86,0c61.43,0 103.507,31.984 103.507,81.642c0,49.658 -42.077,81.641 -103.507,81.641l-122.86,0Z" style="fill:#fff;fill-rule:nonzero;"/><path d="M6257.55,4834.56l139.6,0l-235.472,-577.746l-138.762,0l-235.474,577.746l138.761,0l37.004,-90.841l257.34,-0l37.003,90.841Zm-251.453,-195.876l85.78,-211.122l85.78,211.122l-171.56,-0Z" style="fill:#fff;fill-rule:nonzero;"/><path d="M6953.98,4834.56l-142.047,-201.856c79.006,-27.731 131.113,-94.958 131.113,-180.802c-0,-114.415 -92.448,-195.088 -217.789,-195.088l-259.864,0l0,577.746l123.54,0l0,-187.57l91.724,-0l132.117,187.57l141.206,0Zm-365.047,-464.3l122.86,0c61.43,0 103.507,31.984 103.507,81.642c0,49.658 -42.077,81.641 -103.507,81.641l-122.86,0l0,-163.283Z" style="fill:#fff;fill-rule:nonzero;"/><path d="M7039.88,4834.56l123.54,0l-0,-161.466l72.336,-77.369l177.477,238.835l150.561,0l-241.402,-327.137l225.421,-250.609l-150.561,0l-233.832,264.906l-0,-264.906l-123.54,0l-0,577.746Z" style="fill:#fff;fill-rule:nonzero;"/></g></g></g></g></g></svg>