<?xml version="1.0" encoding="UTF-8" standalone="no"?>
<svg
   width="100%"
   height="100%"
   viewBox="0 0 67.733332 67.733335"
   version="1.1"
   id="svg5"
   xmlns="http://www.w3.org/2000/svg"
   xmlns:svg="http://www.w3.org/2000/svg">

    <path
       style="fill:#fff;fill-opacity:1;stroke-width:0.123505"
       d="m 49.273891,65.402106 c 0.08491,-0.03426 0.223853,-0.03426 0.308762,0 0.08491,0.03426 0.01544,0.06229 -0.154381,0.06229 -0.169819,0 -0.23929,-0.02803 -0.154381,-0.06229 z m 2.223087,0 c 0.08491,-0.03426 0.223853,-0.03426 0.308762,0 0.08491,0.03426 0.01544,0.06229 -0.154381,0.06229 -0.169819,0 -0.23929,-0.02803 -0.154381,-0.06229 z M 5.074289,62.550661 c -0.1536241,-0.195886 -0.1492557,-0.200254 0.04663,-0.04663 0.2057279,0.161343 0.2711523,0.262764 0.1695036,0.262764 -0.025646,0 -0.1229066,-0.09726 -0.2161336,-0.216134 z m 34.828358,-1.482057 c -0.153624,-0.195887 -0.149255,-0.200255 0.04663,-0.04663 0.118873,0.09323 0.216133,0.190488 0.216133,0.216133 0,0.10165 -0.101421,0.03623 -0.262764,-0.169502 z m 21.011574,0.169502 c 0,-0.02565 0.09726,-0.122905 0.216133,-0.216133 0.195886,-0.153624 0.200254,-0.149256 0.04663,0.04663 -0.161343,0.205728 -0.262763,0.271152 -0.262763,0.169503 z M 35.615233,51.651361 c 0,-0.169819 0.02803,-0.23929 0.06229,-0.154381 0.03426,0.08491 0.03426,0.223853 0,0.308762 -0.03426,0.08491 -0.06229,0.01544 -0.06229,-0.154381 z m 29.764661,0 c 0,-0.169819 0.02803,-0.23929 0.0623,-0.154381 0.03426,0.08491 0.03426,0.223853 0,0.308762 -0.03426,0.08491 -0.0623,0.01544 -0.0623,-0.154381 z M 35.615233,49.428274 c 0,-0.169819 0.02803,-0.23929 0.06229,-0.154381 0.03426,0.08491 0.03426,0.223853 0,0.308762 -0.03426,0.08491 -0.06229,0.01544 -0.06229,-0.154381 z m 29.764661,0 c 0,-0.169819 0.02803,-0.23929 0.0623,-0.154381 0.03426,0.08491 0.03426,0.223853 0,0.308762 -0.03426,0.08491 -0.0623,0.01544 -0.0623,-0.154381 z M 39.794897,40.118783 c 0,-0.02565 0.09726,-0.122906 0.216133,-0.216134 0.195886,-0.153624 0.200254,-0.149255 0.04663,0.04663 -0.161342,0.205728 -0.262763,0.271152 -0.262763,0.169504 z M 61.021971,39.94928 c -0.153624,-0.195886 -0.149256,-0.200255 0.04663,-0.04663 0.205728,0.161343 0.271152,0.262764 0.169502,0.262764 -0.02564,0 -0.122905,-0.09726 -0.216133,-0.216133 z m -11.74808,-4.311835 c 0.08491,-0.03426 0.223853,-0.03426 0.308762,0 0.08491,0.03426 0.01544,0.06229 -0.154381,0.06229 -0.169819,0 -0.23929,-0.02803 -0.154381,-0.06229 z m 2.223087,0 c 0.08491,-0.03426 0.223853,-0.03426 0.308762,0 0.08491,0.03426 0.01544,0.06229 -0.154381,0.06229 -0.169819,0 -0.23929,-0.02803 -0.154381,-0.06229 z M 4.9665378,10.230617 c 0,-0.02565 0.09726,-0.122906 0.2161334,-0.216133 0.1958856,-0.1536244 0.200254,-0.149256 0.04663,0.04663 -0.1613429,0.205727 -0.2627633,0.271152 -0.2627634,0.169503 z M 62.504029,10.061114 c -0.153624,-0.195886 -0.149256,-0.2002544 0.04663,-0.04663 0.118874,0.09323 0.216134,0.190487 0.216134,0.216133 0,0.101649 -0.101421,0.03622 -0.262764,-0.169503 z"
       id="path975" />
    <path
       style="fill:#fff;fill-opacity:1;stroke-width:0.123505"
       d="m 11.234407,65.402106 c 0.08491,-0.03426 0.223853,-0.03426 0.308762,0 0.08491,0.03426 0.01544,0.06229 -0.154381,0.06229 -0.169819,0 -0.23929,-0.02803 -0.154381,-0.06229 z m 38.541223,-0.0026 c 0.08915,-0.03568 0.195678,-0.03129 0.236718,0.0097 0.04104,0.04104 -0.03191,0.07023 -0.1621,0.06487 -0.143877,-0.0059 -0.173142,-0.03519 -0.07462,-0.07462 z m 1.358553,0 c 0.08915,-0.03568 0.195678,-0.03129 0.236718,0.0097 0.04104,0.04104 -0.03191,0.07023 -0.1621,0.06487 -0.143877,-0.0059 -0.173142,-0.03519 -0.07462,-0.07462 z M 2.2689326,56.344544 c 0,-0.169819 0.028032,-0.23929 0.062294,-0.154381 0.034262,0.08491 0.034262,0.223853 0,0.308762 -0.034262,0.08491 -0.062294,0.01544 -0.062294,-0.154381 z M 35.605483,51.208803 c 0.0059,-0.143877 0.03519,-0.173142 0.07462,-0.07462 0.03568,0.08915 0.03129,0.195678 -0.0097,0.236718 -0.04104,0.04104 -0.07023,-0.03191 -0.06487,-0.1621 z m 29.764662,0 c 0.0059,-0.143877 0.03519,-0.173142 0.07462,-0.07462 0.03568,0.08915 0.03129,0.195678 -0.0097,0.236718 -0.04104,0.04104 -0.07023,-0.03191 -0.06487,-0.1621 z M 35.605483,49.85025 c 0.0059,-0.143877 0.03519,-0.173142 0.07462,-0.07462 0.03568,0.08915 0.03129,0.195678 -0.0097,0.236718 -0.04104,0.04104 -0.07023,-0.03191 -0.06487,-0.1621 z m 29.764662,0 c 0.0059,-0.143877 0.03519,-0.173142 0.07462,-0.07462 0.03568,0.08915 0.03129,0.195678 -0.0097,0.236718 -0.04104,0.04104 -0.07023,-0.03191 -0.06487,-0.1621 z M 49.77563,35.634872 c 0.08915,-0.03568 0.195678,-0.03129 0.236718,0.0097 0.04104,0.04104 -0.03191,0.07023 -0.1621,0.06487 -0.143877,-0.0059 -0.173142,-0.03519 -0.07462,-0.07462 z m 1.358553,0 c 0.08915,-0.03568 0.195678,-0.03129 0.236718,0.0097 0.04104,0.04104 -0.03191,0.07023 -0.1621,0.06487 -0.143877,-0.0059 -0.173142,-0.03519 -0.07462,-0.07462 z M 2.2689326,16.328983 c 0,-0.169819 0.028032,-0.23929 0.062294,-0.154381 0.034262,0.08491 0.034262,0.223853 0,0.308762 -0.034262,0.08491 -0.062294,0.01544 -0.062294,-0.154381 z m 63.1109614,0 c 0,-0.169819 0.02803,-0.23929 0.0623,-0.154381 0.03426,0.08491 0.03426,0.223853 0,0.308762 -0.03426,0.08491 -0.0623,0.01544 -0.0623,-0.154381 z M 11.234407,7.2313365 c 0.08491,-0.034262 0.223853,-0.034262 0.308762,0 0.08491,0.034262 0.01544,0.062294 -0.154381,0.062294 -0.169819,0 -0.23929,-0.028032 -0.154381,-0.062294 z m 44.955754,0 c 0.08491,-0.034262 0.223853,-0.034262 0.308762,0 0.08491,0.034262 0.01544,0.062294 -0.154381,0.062294 -0.169819,0 -0.23929,-0.028032 -0.154381,-0.062294 z"
       id="path973" />
    <path
       style="fill:#fff;fill-opacity:1;stroke-width:0.123505"
       d="M 10.90225,65.351394 C 6.8316779,64.815735 3.6702025,61.999123 2.5898196,57.945709 L 2.3111842,56.900316 V 36.336764 15.773211 L 2.5898196,14.727818 C 3.561982,11.080429 6.1275755,8.4991524 9.7214733,7.5525689 10.477295,7.3534958 11.23595,7.2762381 12.949405,7.2238524 l 2.239893,-0.068481 0.05134,-1.5575592 c 0.05377,-1.6311929 0.130879,-1.908622 0.702043,-2.5257474 0.48737,-0.526589 0.988927,-0.7390197 1.744853,-0.7390197 0.755926,0 1.257483,0.2124307 1.744853,0.7390197 0.572158,0.6181997 0.648246,0.8935896 0.702577,2.5428748 l 0.05187,1.5746864 h 5.528509 5.528509 l 0.05187,-1.5746864 c 0.05433,-1.6492852 0.130419,-1.9246751 0.702577,-2.5428748 0.48737,-0.526589 0.988926,-0.7390197 1.744852,-0.7390197 0.755927,0 1.257483,0.2124307 1.744853,0.7390197 0.572158,0.6181997 0.648246,0.8935896 0.702577,2.5428748 l 0.05188,1.5746864 h 5.590261 5.590262 l 0.05187,-1.5746864 c 0.05433,-1.6492852 0.130419,-1.9246751 0.702577,-2.5428748 0.48737,-0.526589 0.988927,-0.7390197 1.744853,-0.7390197 0.755926,0 1.257483,0.2124307 1.744852,0.7390197 0.571174,0.617137 0.648277,0.8945443 0.70205,2.5259298 l 0.05135,1.5577416 2.301639,0.067857 c 1.78224,0.052544 2.524605,0.126683 3.289678,0.328534 3.565176,0.9406084 6.109753,3.4795648 7.125279,7.1095398 0.272918,0.975541 0.276469,1.088802 0.280712,8.954099 0.0024,4.381334 -0.03819,8.117879 -0.09012,8.303434 -0.12247,0.437632 -0.764563,1.165068 -1.251596,1.417951 -0.461802,0.23978 -1.621111,0.262951 -2.050907,0.04099 -0.439725,-0.22709 -0.975842,-0.747373 -1.214665,-1.17879 -0.183268,-0.331066 -0.211749,-1.218665 -0.267489,-8.336575 -0.05513,-7.040274 -0.08621,-8.025422 -0.267428,-8.476846 -0.592619,-1.476254 -1.67235,-2.508173 -3.159887,-3.019961 -0.565688,-0.194626 -1.038751,-0.236151 -2.690275,-0.236151 h -2.00389 l -0.05188,1.574687 c -0.05433,1.649286 -0.130418,1.924675 -0.702577,2.542875 -0.487369,0.526589 -0.988926,0.739019 -1.744852,0.739019 -0.755926,0 -1.257483,-0.21243 -1.744853,-0.739019 -0.572158,-0.6182 -0.648246,-0.893589 -0.702577,-2.542875 l -0.05187,-1.574687 h -5.590262 -5.590261 l -0.05188,1.574687 c -0.05433,1.649286 -0.130419,1.924675 -0.702577,2.542875 -0.48737,0.526589 -0.988926,0.739019 -1.744853,0.739019 -0.755926,0 -1.257482,-0.21243 -1.744852,-0.739019 -0.572158,-0.6182 -0.648246,-0.893589 -0.702577,-2.542875 l -0.05187,-1.574687 h -5.528509 -5.528509 l -0.05187,1.574687 c -0.05433,1.649286 -0.130419,1.924675 -0.702577,2.542875 -0.48737,0.526589 -0.988927,0.739019 -1.744853,0.739019 -0.755926,0 -1.257483,-0.21243 -1.744853,-0.739019 -0.572158,-0.6182 -0.648245,-0.893589 -0.702576,-2.542875 l -0.05187,-1.574687 h -1.942138 c -1.58521,0 -2.067266,0.04305 -2.622984,0.234245 -1.5770613,0.542589 -2.6560068,1.620308 -3.1973329,3.193701 -0.2287504,0.664874 -0.2361506,1.316013 -0.2361506,20.778999 0,19.462986 0.0074,20.114124 0.2361506,20.778999 0.511676,1.487213 1.5418444,2.565327 3.0199619,3.160516 0.457932,0.184394 1.584266,0.212067 10.885189,0.267429 11.412724,0.06793 10.693634,0.01622 11.439981,0.822631 0.499421,0.539611 0.642907,0.907296 0.642907,1.647465 0,0.74017 -0.143486,1.107855 -0.642907,1.647466 -0.747848,0.808028 -0.05242,0.759162 -11.069466,0.777829 -5.50214,0.0093 -10.361776,-0.03015 -10.799191,-0.0877 z m 38.103924,-0.0067 c -3.329716,-0.320076 -6.519962,-1.849352 -8.970898,-4.300288 -5.839409,-5.839409 -5.839409,-15.169669 0,-21.009079 5.016721,-5.01672 12.77743,-5.80844 18.71761,-1.909504 1.431657,0.939691 3.261282,2.769317 4.200973,4.200973 3.898936,5.940181 3.107216,13.70089 -1.909504,18.71761 -2.527472,2.527472 -5.622552,3.977 -9.207739,4.312286 -0.747204,0.06988 -1.441918,0.119587 -1.54381,0.110464 -0.101891,-0.0091 -0.680876,-0.06423 -1.286632,-0.122462 z m 3.528432,-4.979343 c 1.890163,-0.400624 3.553674,-1.288637 4.963379,-2.649546 1.981527,-1.912937 3.041432,-4.413669 3.041432,-7.175938 0,-2.673928 -0.95166,-5.019045 -2.823663,-6.958169 -1.912937,-1.981532 -4.413669,-3.041437 -7.175938,-3.041437 -2.762269,0 -5.263001,1.059905 -7.175939,3.041432 -1.872002,1.939124 -2.823662,4.284241 -2.823662,6.958169 0,2.673927 0.95166,5.019044 2.823662,6.958169 1.374315,1.423593 3.200516,2.443332 5.125721,2.862173 1.003349,0.218285 3.02725,0.220858 4.045008,0.0051 z m -2.303552,-7.41017 c -0.06793,-0.02592 -0.275323,-0.08057 -0.460878,-0.121462 -0.419064,-0.09234 -1.149918,-0.722249 -1.428879,-1.231523 -0.18162,-0.331566 -0.209825,-0.798106 -0.209825,-3.470678 0,-1.698191 0.04248,-3.239439 0.09441,-3.424994 0.12247,-0.437632 0.764563,-1.165068 1.251597,-1.41795 0.461801,-0.239781 1.62111,-0.262952 2.050906,-0.04099 0.169525,0.08755 0.466027,0.305226 0.658893,0.483728 0.641756,0.593959 0.743457,0.935786 0.798917,2.685233 l 0.05134,1.619657 0.898082,0.06792 c 0.989034,0.0748 1.44122,0.259422 1.930683,0.788272 0.499421,0.539612 0.642907,0.907296 0.642907,1.647466 0,0.740169 -0.143486,1.107854 -0.642907,1.647465 -0.646683,0.698722 -0.874271,0.753068 -3.288663,0.785299 -1.222697,0.01632 -2.278664,0.0085 -2.346591,-0.01745 z M 17.378772,52.087464 c -0.06793,-0.02419 -0.275323,-0.07743 -0.460878,-0.118322 -0.425058,-0.09366 -1.157394,-0.729714 -1.41795,-1.231524 -0.239781,-0.461802 -0.262952,-1.621111 -0.04099,-2.050906 0.466068,-0.902474 1.255907,-1.397913 2.22858,-1.397913 0.972673,0 1.762513,0.495439 2.22858,1.397913 0.219717,0.425448 0.199002,1.589428 -0.03627,2.038363 -0.212759,0.405971 -0.755162,0.949012 -1.142516,1.143862 -0.280899,0.141301 -1.172631,0.284739 -1.358553,0.218527 z m 10.744919,0 c -0.06793,-0.02419 -0.275323,-0.07743 -0.460878,-0.118322 -0.425058,-0.09366 -1.157394,-0.729714 -1.41795,-1.231524 -0.239781,-0.461802 -0.262952,-1.621111 -0.04099,-2.050906 0.466068,-0.902474 1.255907,-1.397913 2.22858,-1.397913 0.972674,0 1.762513,0.495439 2.228581,1.397913 0.219716,0.425448 0.199002,1.589428 -0.03627,2.038363 -0.212759,0.405971 -0.755161,0.949012 -1.142516,1.143862 -0.280899,0.141301 -1.172631,0.284739 -1.358553,0.218527 z M 17.378772,41.342545 c -0.06793,-0.02419 -0.275323,-0.07744 -0.460878,-0.118323 -0.425058,-0.09366 -1.157394,-0.729713 -1.41795,-1.231523 -0.239781,-0.461802 -0.262952,-1.621111 -0.04099,-2.050906 0.466068,-0.902475 1.255907,-1.397913 2.22858,-1.397913 0.972673,0 1.762513,0.495438 2.22858,1.397913 0.219717,0.425448 0.199002,1.589428 -0.03627,2.038363 -0.212759,0.405971 -0.755162,0.949012 -1.142516,1.143862 -0.280899,0.141301 -1.172631,0.284739 -1.358553,0.218527 z m 10.744919,0 c -0.06793,-0.02419 -0.275323,-0.07744 -0.460878,-0.118323 -0.425058,-0.09366 -1.157394,-0.729713 -1.41795,-1.231523 -0.239781,-0.461802 -0.262952,-1.621111 -0.04099,-2.050906 0.466068,-0.902475 1.255907,-1.397913 2.22858,-1.397913 0.972674,0 1.762513,0.495438 2.228581,1.397913 0.219716,0.425448 0.199002,1.589428 -0.03627,2.038363 -0.212759,0.405971 -0.755161,0.949012 -1.142516,1.143862 -0.280899,0.141301 -1.172631,0.284739 -1.358553,0.218527 z M 17.378772,30.597626 c -0.06793,-0.02419 -0.275323,-0.07744 -0.460878,-0.118323 -0.425058,-0.09366 -1.157394,-0.729713 -1.41795,-1.231523 -0.239781,-0.461802 -0.262952,-1.621111 -0.04099,-2.050906 0.466068,-0.902475 1.255907,-1.397913 2.22858,-1.397913 0.972673,0 1.762513,0.495438 2.22858,1.397913 0.219717,0.425448 0.199002,1.589428 -0.03627,2.038363 -0.212759,0.405971 -0.755162,0.949012 -1.142516,1.143862 -0.280899,0.1413 -1.172631,0.284739 -1.358553,0.218527 z m 10.744919,0 c -0.06793,-0.02419 -0.275323,-0.07744 -0.460878,-0.118323 -0.425058,-0.09366 -1.157394,-0.729713 -1.41795,-1.231523 -0.239781,-0.461802 -0.262952,-1.621111 -0.04099,-2.050906 0.466068,-0.902475 1.255907,-1.397913 2.22858,-1.397913 0.972674,0 1.762513,0.495438 2.228581,1.397913 0.219716,0.425448 0.199002,1.589428 -0.03627,2.038363 -0.212759,0.405971 -0.755161,0.949012 -1.142516,1.143862 -0.280899,0.1413 -1.172631,0.284739 -1.358553,0.218527 z m 10.744919,0 c -0.06793,-0.02419 -0.275323,-0.07744 -0.460878,-0.118323 -0.425057,-0.09366 -1.157394,-0.729713 -1.41795,-1.231523 -0.239781,-0.461802 -0.262951,-1.621111 -0.04099,-2.050906 0.466068,-0.902475 1.255907,-1.397913 2.22858,-1.397913 0.972674,0 1.762513,0.495438 2.228581,1.397913 0.219716,0.425448 0.199002,1.589428 -0.03627,2.038363 -0.212759,0.405971 -0.755161,0.949012 -1.142516,1.143862 -0.280899,0.1413 -1.172631,0.284739 -1.358553,0.218527 z m 10.74492,0 c -0.06793,-0.02419 -0.275323,-0.07744 -0.460878,-0.118323 -0.425058,-0.09366 -1.157395,-0.729713 -1.417951,-1.231523 -0.23978,-0.461802 -0.262951,-1.621111 -0.04099,-2.050906 0.466068,-0.902475 1.255907,-1.397913 2.228581,-1.397913 0.972673,0 1.762512,0.495438 2.22858,1.397913 0.219716,0.425448 0.199002,1.589428 -0.03627,2.038363 -0.21276,0.405971 -0.755162,0.949012 -1.142516,1.143862 -0.2809,0.1413 -1.172632,0.284739 -1.358553,0.218527 z"
       id="path971" />
</svg>
