<?xml version="1.0" encoding="UTF-8" standalone="no"?>
<!-- Created with Inkscape (http://www.inkscape.org/) -->

<svg
   width="256"
   height="256"
   viewBox="0 0 67.733332 67.733335"
   version="1.1"
   id="svg5"
   inkscape:version="1.1.1 (3bf5ae0d25, 2021-09-20)"
   sodipodi:docname="capacity.svg"
   xmlns:inkscape="http://www.inkscape.org/namespaces/inkscape"
   xmlns:sodipodi="http://sodipodi.sourceforge.net/DTD/sodipodi-0.dtd"
   xmlns="http://www.w3.org/2000/svg"
   xmlns:svg="http://www.w3.org/2000/svg">
  <sodipodi:namedview
     id="namedview7"
     pagecolor="#505050"
     bordercolor="#ffffff"
     borderopacity="1"
     inkscape:pageshadow="0"
     inkscape:pageopacity="0"
     inkscape:pagecheckerboard="1"
     inkscape:document-units="mm"
     showgrid="false"
     units="px"
     width="256px"
     inkscape:zoom="2.8390888"
     inkscape:cx="133.31742"
     inkscape:cy="129.44294"
     inkscape:window-width="1920"
     inkscape:window-height="1009"
     inkscape:window-x="1912"
     inkscape:window-y="-8"
     inkscape:window-maximized="1"
     inkscape:current-layer="g7602" />
  <defs
     id="defs2" />
  <g
     inkscape:label="Ebene 1"
     inkscape:groupmode="layer"
     id="layer1">
    <circle
       style="fill:none;stroke:#ffffff;stroke-width:2.92182;stroke-linejoin:round;stroke-miterlimit:4;stroke-dasharray:none;stroke-opacity:1"
       id="path846"
       cx="33.866665"
       cy="33.866665"
       r="31.185663" />
    <g
       id="g5549"
       transform="translate(16.588362,-1.3978957)">
      <g
         id="g7147"
         transform="translate(-0.37277218,-10.624007)">
        <g
           id="g7602"
           transform="matrix(0.78934677,0,0,0.78934677,8.0314108,5.8212261)">
          <path
             style="fill:#ffffff;fill-opacity:1;stroke-width:0.264583"
             d="M -4.2452508,73.904945 C -8.5058749,73.36675 -12.041118,72.159644 -13.874328,70.6171 c -3.947987,-3.322013 -0.335566,-9.311693 7.5614172,-12.53743 3.198632,-1.30657 4.3064832,-1.90936 4.9798049,-2.709558 1.41422646,-1.680713 1.20062411,-3.167555 -0.8372218,-5.827726 -0.8119825,-1.059947 -1.7655226,-2.568493 -2.1189781,-3.352323 -1.6549354,-3.67002 -2.1536287,-8.847193 -1.1384497,-11.818792 1.5532539,-4.546633 5.67567389,-7.227369 10.6621556,-6.933408 3.1970567,0.188472 4.9434129,0.949934 7.0810029,3.087524 2.426983,2.426983 2.995671,3.913034 2.996189,7.829405 5.3e-4,3.873196 -0.703987,6.246435 -2.803329,9.443556 -2.164035,3.295645 -2.5983055,4.241978 -2.5983055,5.662057 0,1.068927 0.1247015,1.35368 0.9222025,2.105822 0.551899,0.520509 1.826106,1.210905 3.173277,1.71936 6.049314,2.283158 10.721187,6.488173 10.721187,9.64982 0,3.109703 -2.585641,5.367155 -7.251237,6.33086 -4.088382,0.844478 -17.06964121,1.226182 -21.7206378,0.638678 z M 29.279918,62.55247 c -1.56681,-3.335112 -5.454291,-6.818024 -10.338687,-9.262742 -1.147559,-0.574371 -2.224738,-1.044311 -2.39373,-1.044311 -0.168995,0 0.156668,-0.684609 0.723688,-1.521354 1.467065,-2.164916 2.056424,-3.410445 2.870444,-6.066273 0.640482,-2.089641 0.715983,-2.750134 0.720508,-6.302998 0.0047,-3.665488 -0.04873,-4.10953 -0.698717,-5.811134 -0.387072,-1.013311 -0.65622,-1.889932 -0.598107,-1.948045 0.241401,-0.241401 2.773188,0.566322 4.036282,1.287705 2.410707,1.376811 3.632677,3.809052 3.58362,7.132933 -0.03687,2.49818 -0.732713,4.72591 -2.112893,6.764398 -1.532867,2.264 -1.933202,3.13972 -1.933202,4.228809 0,1.248299 1.003424,2.215637 3.0925,2.981285 3.473013,1.27286 7.129769,4.10582 7.758396,6.010577 0.622472,1.886111 -0.33899,3.842361 -2.406971,4.897366 -0.557982,0.28466 -1.108551,0.515207 -1.223488,0.512326 -0.114938,-0.0029 -0.600779,-0.839227 -1.079643,-1.858542 z m 8.792673,-7.685445 c -0.573564,-0.886446 -1.638155,-2.120151 -2.365759,-2.741562 -1.45923,-1.246253 -4.403011,-3.211859 -5.179161,-3.458199 -0.471839,-0.149757 -0.465362,-0.206259 0.132125,-1.152742 1.239849,-1.964047 2.259275,-5.916027 2.260407,-8.762855 7.94e-4,-2.122659 -0.567552,-4.615079 -1.449273,-6.355068 l -0.667803,-1.317848 0.732059,0.0015 c 2.548279,0.0051 5.036857,1.98207 5.624957,4.468479 0.477491,2.018776 0.0021,4.522452 -1.245835,6.561217 -1.460379,2.385841 -1.659306,2.809905 -1.661054,3.540937 -0.0021,0.894877 0.805928,1.576558 2.908786,2.453835 4.427768,1.847185 6.414305,4.758827 4.718077,6.915229 -0.507397,0.645049 -1.925545,1.458828 -2.542257,1.458828 -0.122335,0 -0.691708,-0.725276 -1.265269,-1.611725 z"
             id="path7604" />
        </g>
      </g>
    </g>
  </g>
</svg>
