<?xml version="1.0" encoding="UTF-8" standalone="no"?>

<svg
   width="100%"
   height="100%"
   viewBox="0 0 67.733332 67.733335"
   version="1.1"
   id="svg5"
   xmlns="http://www.w3.org/2000/svg"
   xmlns:svg="http://www.w3.org/2000/svg">
    <path
       d="m 56.623487,7.6798616 c -5.191633,0.8715876 -9.536938,4.7495204 -10.951688,9.7390434 -0.164213,0.618954 -1.073696,5.659004 -2.008442,11.216954 -1.098958,6.505328 -1.818965,10.484315 -2.033704,11.179059 -0.404215,1.237907 -1.136854,2.766343 -1.869492,3.85267 -0.745271,1.086326 -2.488446,2.842133 -3.562141,3.587404 -2.311602,1.604226 -5.520055,2.665289 -8.046396,2.665289 -0.82106,0 -1.414751,0.29053 -1.667385,0.821061 -0.252634,0.530532 -0.252634,0.858956 0,1.389487 0.214739,0.467374 0.833692,0.821061 1.427383,0.821061 h 0.391582 v 2.084232 2.084231 H 26.11792 c -1.212644,0 -2.804239,-0.03791 -3.536878,-0.08842 L 21.22945,56.95614 v -3.246347 -3.246349 l 1.174749,-0.770533 c 5.381106,-3.574773 8.627454,-9.296935 8.892719,-15.688577 0.05053,-1.40212 0.02526,-1.92002 -0.189475,-2.905293 -0.5179,-2.463182 -1.515805,-4.370569 -3.18319,-6.037954 -2.071599,-2.0716 -4.686362,-3.246349 -7.579022,-3.397929 C 13.96622,21.322102 8.4966916,26.19794 8.1303725,32.564319 c -0.1894756,3.246348 0.7579022,7.225335 2.4379185,10.219049 0.732639,1.301066 1.907387,2.943187 2.362129,3.271612 0.720007,0.530531 1.768439,0.214739 2.172653,-0.644217 0.303161,-0.631586 0.189476,-1.023168 -0.732639,-2.298971 -1.957914,-2.728448 -3.031609,-5.734793 -3.208452,-9.0443 -0.202108,-3.827406 1.553699,-6.934806 4.825311,-8.5264 2.387392,-1.162117 5.065313,-1.162117 7.452705,0 3.271612,1.591594 5.027419,4.698994 4.825311,8.5264 -0.189475,3.397928 -1.301065,6.467433 -3.322138,9.157986 -2.501077,3.309507 -5.911637,5.469528 -10.092732,6.391642 -0.846324,0.189476 -1.907387,0.240003 -6.4421692,0.29053 -5.9495328,0.08842 -5.8105844,0.06316 -6.1895355,0.846324 -0.2400023,0.5179 -0.2400023,0.858956 0.012633,1.376855 0.341056,0.73264 0.7200071,0.821061 3.4484553,0.821061 h 2.4126557 v 2.021073 2.021075 H 5.6798221 c -2.7284482,0 -3.1073993,0.08842 -3.4484553,0.82106 -0.2526343,0.530531 -0.2526343,0.858953 0,1.389484 0.4042142,0.858958 -2.14738998,0.783167 31.5918932,0.94738 28.320282,0.138948 30.631881,0.126316 31.036098,-0.06316 0.454741,-0.214738 0.833691,-0.82106 0.833691,-1.326332 0,-0.492634 -0.37895,-1.111588 -0.821059,-1.313694 -0.303161,-0.15158 -0.808427,-0.20211 -1.818965,-0.20211 H 61.650903 V 33.878017 10.509363 h 1.402122 c 1.010538,0 1.515804,-0.05053 1.818965,-0.202107 0.442109,-0.202107 0.821059,-0.8210609 0.821059,-1.3136974 0,-0.4926365 -0.37895,-1.1115899 -0.821059,-1.313697 -0.353686,-0.1642124 -0.960008,-0.2021076 -3.814776,-0.1894755 -2.248442,0.012632 -3.738982,0.07579 -4.433727,0.1894755 z M 58.619293,33.878017 V 57.246669 H 55.082418 51.545542 V 35.343294 13.45255 l 0.74527,-0.581058 c 1.528437,-1.200012 3.461085,-2.021073 5.280051,-2.22318 0.467374,-0.06316 0.89685,-0.113685 0.960012,-0.126317 0.05053,0 0.08842,10.496946 0.08842,23.356022 z M 48.488668,57.196144 c -0.02526,0.01265 -1.616858,0 -3.536877,-0.03791 l -3.511614,-0.07579 v -5.280041 -5.280052 l 0.846324,-1.237907 c 1.023168,-1.515805 1.932651,-3.385297 2.374761,-4.901102 0.176844,-0.631585 1.098958,-5.659003 2.033705,-11.179058 0.922114,-5.520055 1.70528,-10.130627 1.717911,-10.231681 0.02526,-0.101053 0.05053,8.45061 0.06316,18.998084 0.02527,10.560105 0.02527,19.20019 0.01263,19.225455 z m -10.0801,-3.928461 v 3.85267 h -3.536877 -3.536877 v -2.261075 -2.261075 l 0.644216,-0.138949 c 1.705281,-0.36632 4.320043,-1.541068 5.6969,-2.538973 0.366319,-0.277897 0.682112,-0.492636 0.707375,-0.505268 0.01263,0 0.02526,1.730543 0.02526,3.85267 z m -20.210727,1.136853 v 2.589502 h -3.536877 -3.536878 v -1.995811 -2.008442 l 1.427383,-0.07579 c 1.680017,-0.08842 3.18319,-0.341056 4.572677,-0.757902 0.555795,-0.176844 1.023168,-0.315792 1.048432,-0.328424 0.01263,0 0.02526,1.149485 0.02526,2.576867 z"
       id="path1031"
       style="fill:#093f5f;stroke:none;stroke-width:0.0126317;fill-opacity:1" />
</svg>
