<?xml version="1.0" standalone="no"?>
<!DOCTYPE svg PUBLIC "-//W3C//DTD SVG 20010904//EN"
 "http://www.w3.org/TR/2001/REC-SVG-20010904/DTD/svg10.dtd">
<svg version="1.0" xmlns="http://www.w3.org/2000/svg"
 width="100%" height="100%" viewBox="0 0 503.918289 417.633249"
 preserveAspectRatio="xMidYMid meet">
<g transform="translate(-4.081711,419.913713) scale(0.100000,-0.100000)"
fill="#000000" stroke="none">
<path d="M4362 4184 c-411 -69 -755 -376 -867 -771 -13 -49 -85 -448 -159
-888 -87 -515 -144 -830 -161 -885 -32 -98 -90 -219 -148 -305 -59 -86 -197
-225 -282 -284 -183 -127 -437 -211 -637 -211 -65 0 -112 -23 -132 -65 -20
-42 -20 -68 0 -110 17 -37 66 -65 113 -65 l31 0 0 -165 0 -165 -173 0 c-96 0
-222 3 -280 7 l-107 6 0 257 0 257 93 61 c426 283 683 736 704 1242 4 111 2
152 -15 230 -41 195 -120 346 -252 478 -164 164 -371 257 -600 269 -505 27
-938 -359 -967 -863 -15 -257 60 -572 193 -809 58 -103 151 -233 187 -259 57
-42 140 -17 172 51 24 50 15 81 -58 182 -155 216 -240 454 -254 716 -16 303
123 549 382 675 189 92 401 92 590 0 259 -126 398 -372 382 -675 -15 -269
-103 -512 -263 -725 -198 -262 -468 -433 -799 -506 -67 -15 -151 -19 -510 -23
-471 -7 -460 -5 -490 -67 -19 -41 -19 -68 1 -109 27 -58 57 -65 273 -65 l191
0 0 -160 0 -160 -191 0 c-216 0 -246 -7 -273 -65 -20 -42 -20 -68 0 -110 32
-68 -170 -62 2501 -75 2242 -11 2425 -10 2457 5 36 17 66 65 66 105 0 39 -30
88 -65 104 -24 12 -64 16 -144 16 l-111 0 0 1850 0 1850 111 0 c80 0 120 4
144 16 35 16 65 65 65 104 0 39 -30 88 -65 104 -28 13 -76 16 -302 15 -178 -1
-296 -6 -351 -15z m158 -2074 l0 -1850 -280 0 -280 0 0 1734 0 1733 59 46
c121 95 274 160 418 176 37 5 71 9 76 10 4 0 7 -831 7 -1849z m-802 -1846 c-2
-1 -128 0 -280 3 l-278 6 0 418 0 418 67 98 c81 120 153 268 188 388 14 50 87
448 161 885 73 437 135 802 136 810 2 8 4 -669 5 -1504 2 -836 2 -1520 1
-1522z m-798 311 l0 -305 -280 0 -280 0 0 179 0 179 51 11 c135 29 342 122
451 201 29 22 54 39 56 40 1 0 2 -137 2 -305z m-1600 -90 l0 -205 -280 0 -280
0 0 158 0 159 113 6 c133 7 252 27 362 60 44 14 81 25 83 26 1 0 2 -91 2 -204z"/>
</g>
</svg>
