<?xml version="1.0" encoding="UTF-8" standalone="no"?>
<!DOCTYPE svg PUBLIC "-//W3C//DTD SVG 1.1//EN" "http://www.w3.org/Graphics/SVG/1.1/DTD/svg11.dtd">
<svg width="100%" height="100%" viewBox="0 0 68 68" version="1.1" xmlns="http://www.w3.org/2000/svg" xmlns:xlink="http://www.w3.org/1999/xlink" xml:space="preserve" xmlns:serif="http://www.serif.com/" style="fill-rule:evenodd;clip-rule:evenodd;stroke-linejoin:round;stroke-miterlimit:2;">
    <path id="path908" d="M15.075,63.731C11.282,63.206 8.123,60.268 7.236,56.439C7.082,55.776 7.059,52.881 7.059,33.844C7.059,14.808 7.082,11.913 7.236,11.25C7.912,8.333 9.807,5.984 12.479,4.751C14.388,3.87 12.988,3.933 30.763,3.933C45.865,3.933 46.723,3.944 47.445,4.148C50.969,5.145 53.491,7.755 54.279,11.219C54.445,11.95 54.469,13.094 54.469,20.146C54.469,27.866 54.459,28.254 54.247,28.669C53.318,30.479 50.829,30.361 49.981,28.466C49.886,28.255 49.829,25.787 49.787,20.089L49.728,12.011L49.412,11.337C48.949,10.349 48.081,9.49 47.064,9.013L46.216,8.616L15.309,8.616L14.522,8.989C13.473,9.486 12.65,10.274 12.177,11.235L11.797,12.006L11.797,55.683L12.177,56.454C12.65,57.415 13.473,58.203 14.522,58.7L15.309,59.073L20.109,59.132C24.283,59.183 24.955,59.215 25.26,59.384C26.656,60.154 26.918,62.121 25.768,63.194C25.118,63.801 24.972,63.816 20.025,63.797C17.496,63.787 15.268,63.758 15.075,63.731L15.075,63.731ZM17.712,41.074C17.428,40.929 17.035,40.608 16.838,40.36C16.508,39.945 16.48,39.84 16.48,38.996C16.48,38.151 16.508,38.046 16.838,37.631C17.035,37.383 17.428,37.062 17.712,36.918L18.227,36.654L33.815,36.654L34.331,36.918C34.614,37.062 35.008,37.383 35.204,37.631C35.535,38.046 35.562,38.151 35.562,38.996C35.562,39.84 35.535,39.945 35.204,40.36C35.008,40.608 34.614,40.929 34.331,41.074L33.815,41.337L18.227,41.337L17.712,41.074ZM17.712,31.708C17.428,31.563 17.035,31.242 16.838,30.995C16.508,30.579 16.48,30.474 16.48,29.63C16.48,28.786 16.508,28.68 16.838,28.265C17.035,28.018 17.428,27.697 17.712,27.552L18.227,27.289L30.733,27.289C41.755,27.289 43.29,27.31 43.672,27.47C45.589,28.271 45.589,30.989 43.672,31.79C43.29,31.95 41.755,31.971 30.733,31.971L18.227,31.971L17.712,31.708ZM17.712,22.342C17.428,22.197 17.035,21.876 16.838,21.629C16.508,21.214 16.48,21.108 16.48,20.264C16.48,19.42 16.508,19.315 16.838,18.9C17.035,18.652 17.428,18.331 17.712,18.186L18.227,17.923L30.733,17.923C41.755,17.923 43.29,17.944 43.672,18.104C45.589,18.905 45.589,21.623 43.672,22.424C43.29,22.584 41.755,22.606 30.733,22.606L18.227,22.606L17.712,22.342Z" style="fill:white;fill-rule:nonzero;"/>
    <path d="M42.42,56.909C42.712,56.831 43.026,56.743 43.364,56.646C45.165,56.127 46.467,55.612 47.372,55.189C44.757,53.39 41.203,50.066 41.168,46.711C41.096,39.842 45.451,36.344 49.964,36.542C54.584,36.744 58.971,40.737 58.824,48.209C58.784,50.255 57.808,51.865 56.333,53.162C54.674,54.622 52.428,55.701 49.986,56.534L49.984,56.533L49.939,56.551C45.712,58.17 43.426,58.237 43.426,58.237L43.302,58.207C36.759,59.374 30.784,59.315 30.784,59.315C29.541,59.304 28.523,60.304 28.512,61.548C28.501,62.791 29.501,63.809 30.744,63.82C30.744,63.82 41.031,63.903 49.836,61.307C57.03,63.92 64.705,64.353 64.705,64.353C65.946,64.422 67.009,63.47 67.078,62.228C67.147,60.987 66.195,59.924 64.954,59.855C64.954,59.855 61.09,59.645 56.421,58.559C60.466,56.194 63.239,52.83 63.328,48.298C63.538,37.628 56.758,32.33 50.161,32.041C43.459,31.747 36.556,36.557 36.663,46.758C36.703,50.543 39.947,54.503 42.42,56.909Z" style="fill:white;"/>
    <g transform="matrix(0.73942,-0.181927,0.132219,0.537388,8.35381,27.1798)">
        <path d="M50.207,45.84C49.89,44 50.696,42.148 52.024,41.663C52.627,41.443 53.257,41.213 53.799,41.015C54.634,40.711 55.5,41.323 55.806,42.434C56.069,43.386 56.392,44.56 56.696,45.664C56.939,46.545 56.884,47.529 56.546,48.349C56.207,49.168 55.621,49.737 54.947,49.901C54.213,50.08 53.441,50.268 52.78,50.428C51.819,50.662 50.892,49.823 50.668,48.517C50.525,47.687 50.361,46.736 50.207,45.84Z" style="fill:white;"/>
    </g>
    <g transform="matrix(0.682641,0.129099,-0.0988027,0.522444,23.5852,16.417)">
        <path d="M50.217,45.9C49.893,44.014 50.756,42.126 52.181,41.606C52.668,41.428 53.166,41.247 53.615,41.083C54.547,40.742 55.521,41.4 55.849,42.589C56.097,43.49 56.395,44.569 56.677,45.592C56.927,46.501 56.859,47.508 56.492,48.346C56.124,49.184 55.493,49.768 54.767,49.945C54.161,50.092 53.538,50.244 52.98,50.38C51.913,50.639 50.88,49.749 50.641,48.365C50.508,47.591 50.359,46.724 50.217,45.9Z" style="fill:white;"/>
    </g>
    <g transform="matrix(0.197344,0.666124,-0.509803,0.151033,65.728,9.44247)">
        <path d="M50.217,45.9C49.893,44.014 50.756,42.126 52.181,41.606C52.668,41.428 53.166,41.247 53.615,41.083C54.547,40.742 55.521,41.4 55.849,42.589C56.097,43.49 56.395,44.569 56.677,45.592C56.927,46.501 56.859,47.508 56.492,48.346C56.124,49.184 55.493,49.768 54.767,49.945C54.161,50.092 53.538,50.244 52.98,50.38C51.913,50.639 50.88,49.749 50.641,48.365C50.508,47.591 50.359,46.724 50.217,45.9Z" style="fill:white;"/>
    </g>
</svg>
