<?xml version="1.0" encoding="UTF-8" standalone="no"?>
<!DOCTYPE svg PUBLIC "-//W3C//DTD SVG 1.1//EN" "http://www.w3.org/Graphics/SVG/1.1/DTD/svg11.dtd">
<svg width="100%" height="100%" viewBox="0 0 68 68" version="1.1" xmlns="http://www.w3.org/2000/svg" xmlns:xlink="http://www.w3.org/1999/xlink" xml:space="preserve" xmlns:serif="http://www.serif.com/" style="fill-rule:evenodd;clip-rule:evenodd;stroke-linecap:round;stroke-linejoin:round;stroke-miterlimit:1.5;">
    <path id="path908" d="M15.075,63.731C11.282,63.206 8.123,60.268 7.236,56.439C7.082,55.776 7.059,52.881 7.059,33.844C7.059,14.808 7.082,11.913 7.236,11.25C7.912,8.333 9.807,5.984 12.479,4.751C14.388,3.87 12.988,3.933 30.763,3.933C45.865,3.933 46.723,3.944 47.445,4.148C50.969,5.145 53.491,7.755 54.279,11.219C54.445,11.95 54.469,13.094 54.469,20.146C54.469,27.866 54.459,28.254 54.247,28.669C53.318,30.479 50.829,30.361 49.981,28.466C49.886,28.255 49.829,25.787 49.787,20.089L49.728,12.011L49.412,11.337C48.949,10.349 48.081,9.49 47.064,9.013L46.216,8.616L15.309,8.616L14.522,8.989C13.473,9.486 12.65,10.274 12.177,11.235L11.797,12.006L11.797,55.683L12.177,56.454C12.65,57.415 13.473,58.203 14.522,58.7L15.309,59.073L20.109,59.132C24.283,59.183 24.955,59.215 25.26,59.384C26.656,60.154 26.918,62.121 25.768,63.194C25.118,63.801 24.972,63.816 20.025,63.797C17.496,63.787 15.268,63.758 15.075,63.731L15.075,63.731ZM17.712,41.074C17.428,40.929 17.035,40.608 16.838,40.36C16.508,39.945 16.48,39.84 16.48,38.996C16.48,38.151 16.508,38.046 16.838,37.631C17.035,37.383 17.428,37.062 17.712,36.918L18.227,36.654L26.552,36.654L27.068,36.918C27.351,37.062 27.745,37.383 27.941,37.631C28.272,38.046 28.299,38.151 28.299,38.996C28.299,39.84 28.272,39.945 27.941,40.36C27.745,40.608 27.351,40.929 27.068,41.074L26.552,41.337L18.227,41.337L17.712,41.074ZM17.712,31.708C17.428,31.563 17.035,31.242 16.838,30.995C16.508,30.579 16.48,30.474 16.48,29.63C16.48,28.786 16.508,28.68 16.838,28.265C17.035,28.018 17.428,27.697 17.712,27.552L18.227,27.289L30.733,27.289C41.755,27.289 43.29,27.31 43.672,27.47C45.589,28.271 45.589,30.989 43.672,31.79C43.29,31.95 41.755,31.971 30.733,31.971L18.227,31.971L17.712,31.708ZM17.712,22.342C17.428,22.197 17.035,21.876 16.838,21.629C16.508,21.214 16.48,21.108 16.48,20.264C16.48,19.42 16.508,19.315 16.838,18.9C17.035,18.652 17.428,18.331 17.712,18.186L18.227,17.923L30.733,17.923C41.755,17.923 43.29,17.944 43.672,18.104C45.589,18.905 45.589,21.623 43.672,22.424C43.29,22.584 41.755,22.606 30.733,22.606L18.227,22.606L17.712,22.342Z" style="fill:white;fill-rule:nonzero;"/>
    <g transform="matrix(1,0,0,0.836384,0.804221,10.1877)">
        <path d="M51.27,62.266L51.27,33.867" style="fill:none;stroke:white;stroke-width:4.89px;"/>
    </g>
    <path d="M44.89,38.513C44.89,38.513 43.139,47.563 52.075,47.471C60.095,47.389 59.419,38.513 59.419,38.513" style="fill:none;stroke:white;stroke-width:4.5px;"/>
    <path d="M33.867,63.801L33.867,36.992C33.867,36.992 37.075,36.192 37.132,41.281C37.189,46.371 33.867,49.917 33.867,49.917" style="fill:none;stroke:white;stroke-width:4.5px;"/>
</svg>
