<?xml version="1.0" encoding="UTF-8" standalone="no"?>
<!-- Created with Inkscape (http://www.inkscape.org/) -->

<svg
   width="100%"
   height="100%"
   viewBox="0 0 67.733332 67.733335"
   version="1.1"
   id="svg5"
   xmlns="http://www.w3.org/2000/svg"
   xmlns:svg="http://www.w3.org/2000/svg">
  <path
     style="fill:#ffffff;fill-opacity:1;stroke-width:0.097587"
     d="M 10.689735,54.326719 C 10.016513,54.16138 9.471106,53.719559 9.1150864,53.051126 8.9394055,52.721279 8.9331676,52.067257 8.9331676,33.972849 V 15.236131 L 9.1469917,14.836543 C 9.414512,14.336599 9.925317,13.881852 10.413003,13.709466 10.72015,13.600895 12.90635,13.57715 22.595359,13.57715 c 11.399082,0 11.820949,0.0064 12.180862,0.185162 1.375682,0.683211 1.74636,2.340215 0.776885,3.472827 -0.681124,0.795743 0.325413,0.727534 -11.542735,0.782226 l -10.588198,0.04879 -0.02469,15.931379 -0.02469,15.931386 15.931383,-0.02469 15.931383,-0.02469 0.04879,-10.588198 c 0.05469,-11.868148 -0.01352,-10.861607 0.782225,-11.542734 1.132609,-0.969476 2.789616,-0.598796 3.472827,0.776884 0.178748,0.359916 0.185159,0.781783 0.185159,12.180865 0,9.689005 -0.02376,11.87521 -0.132313,12.182357 -0.172386,0.487686 -0.627133,0.998491 -1.127077,1.266011 l -0.399587,0.213824 -18.541546,0.01504 C 19.326188,54.391889 10.85075,54.366269 10.68973,54.326719 Z M 28.352996,35.983548 c -0.478332,-0.221459 -0.867305,-0.623761 -1.06828,-1.104881 -0.193762,-0.463848 -0.194512,-1.344933 -0.0014,-1.811633 0.106262,-0.256998 3.592845,-3.806866 11.954416,-12.171398 6.492423,-6.494718 11.8044,-11.8412746 11.8044,-11.8812296 0,-0.03995 -2.955584,-0.07264 -6.567966,-0.07264 H 37.906058 L 37.396957,8.6880652 c -0.712438,-0.355023 -1.098741,-0.933778 -1.163737,-1.743498 -0.0604,-0.752451 0.08582,-1.226238 0.530247,-1.718169 0.692599,-0.766624 0.06935,-0.724849 10.814185,-0.724849 h 9.563531 l 0.390349,0.210633 c 0.456752,0.246467 0.832098,0.628746 1.086714,1.106792 0.173976,0.32664 0.181918,0.763424 0.181918,10.0026818 v 9.661118 l -0.21382,0.399588 c -0.466006,0.870863 -1.211976,1.267788 -2.229198,1.186136 -0.809719,-0.065 -1.388477,-0.4513 -1.743497,-1.163737 l -0.253696,-0.5091 v -6.567969 c 0,-3.612381 -0.03268,-6.567966 -0.07265,-6.567966 -0.03995,0 -5.386507,5.311979 -11.881226,11.804401 -8.364532,8.361569 -11.914398,11.848155 -12.1714,11.954417 -0.496472,0.20528 -1.398971,0.188493 -1.881685,-0.035 z"
     id="path874" />
</svg>
