<?xml version="1.0" encoding="UTF-8" standalone="no"?>
<!-- Created with Inkscape (http://www.inkscape.org/) -->

<svg
   width="256"
   height="256"
   viewBox="0 0 67.733332 67.733335"
   version="1.1"
   id="svg5"
   inkscape:version="1.1.1 (3bf5ae0d25, 2021-09-20)"
   sodipodi:docname="price.svg"
   xmlns:inkscape="http://www.inkscape.org/namespaces/inkscape"
   xmlns:sodipodi="http://sodipodi.sourceforge.net/DTD/sodipodi-0.dtd"
   xmlns="http://www.w3.org/2000/svg"
   xmlns:svg="http://www.w3.org/2000/svg">
  <sodipodi:namedview
     id="namedview7"
     pagecolor="#505050"
     bordercolor="#ffffff"
     borderopacity="1"
     inkscape:pageshadow="0"
     inkscape:pageopacity="0"
     inkscape:pagecheckerboard="1"
     inkscape:document-units="mm"
     showgrid="false"
     units="px"
     width="256px"
     inkscape:zoom="2.8390888"
     inkscape:cx="140.71416"
     inkscape:cy="137.89636"
     inkscape:window-width="1920"
     inkscape:window-height="1009"
     inkscape:window-x="1912"
     inkscape:window-y="-8"
     inkscape:window-maximized="1"
     inkscape:current-layer="g7147" />
  <defs
     id="defs2" />
  <g
     inkscape:label="Ebene 1"
     inkscape:groupmode="layer"
     id="layer1">
    <circle
       style="fill:none;stroke:#ffffff;stroke-width:2.92182;stroke-linejoin:round;stroke-miterlimit:4;stroke-dasharray:none;stroke-opacity:1"
       id="path846"
       cx="33.866665"
       cy="33.866665"
       r="31.185663" />
    <g
       id="g5549"
       transform="translate(16.588362,-1.3978957)">
      <g
         id="g7147"
         transform="translate(-0.37277218,-10.624007)">
        <path
           style="fill:#ffffff;fill-opacity:1;stroke-width:0.194092"
           d="M 18.42221,65.25366 C 12.563366,64.190593 8.0214419,60.823674 5.3363743,55.55315 L 4.6402269,54.186682 0.42065559,54.13433 C -1.9001089,54.10554 -3.7703763,54.011081 -3.7354939,53.924421 c 0.034882,-0.08667 0.4123826,-1.176702 0.8388923,-2.42232 l 0.7754725,-2.264763 H 0.67261019 3.4663514 L 3.3439567,48.218355 C 3.2766399,47.657914 3.2208032,46.69716 3.2198762,46.083345 l -0.0017,-1.116029 H 0.59794819 c -1.44113222,0 -2.61943499,-0.06551 -2.61845299,-0.145568 9.683e-4,-0.08006 0.3405072,-1.106325 0.7544974,-2.280581 l 0.75270975,-2.135011 2.19440675,-0.09705 2.1944068,-0.09705 0.322637,-1.067506 c 0.888217,-2.938841 2.3259779,-5.440174 4.3303452,-7.533685 2.2233679,-2.322254 5.1302019,-4.011628 8.4702149,-4.922667 1.454888,-0.396843 2.085425,-0.450049 5.337528,-0.45038 3.953756,-3.88e-4 5.49787,0.217295 8.452036,1.191639 2.216957,0.731197 2.061247,0.376726 1.666121,3.79291 -0.189117,1.635063 -0.384252,3.116219 -0.433631,3.291461 -0.07857,0.278858 -0.294259,0.23835 -1.728185,-0.324588 -2.708611,-1.063355 -4.608308,-1.477198 -7.277021,-1.585278 -1.821436,-0.07377 -2.752694,-0.02144 -3.736272,0.209949 -3.067911,0.721724 -5.383879,2.570019 -6.743668,5.38189 -0.427566,0.884145 -0.77739,1.721334 -0.77739,1.860419 0,0.203358 1.448496,0.252883 7.396259,0.252883 5.834226,0 7.377801,0.05124 7.308856,0.242613 -0.04808,0.13344 -0.425337,1.181535 -0.838368,2.329104 l -0.75097,2.086487 h -6.946071 -6.946073 l 0.0026,1.698304 c 0.0016,0.934067 0.05532,1.894823 0.119686,2.135011 l 0.117032,0.436707 H 18.2829 c 4.252634,0 7.061707,0.07221 7.061707,0.18153 0,0.09984 -0.358454,1.191608 -0.796563,2.426149 l -0.796601,2.244619 h -5.414378 c -2.977907,0 -5.414377,0.07424 -5.414377,0.164971 0,0.322556 1.119427,1.703239 2.032808,2.507227 3.300526,2.905241 9.102747,3.148545 15.53376,0.651374 1.712524,-0.664976 1.47973,-0.990436 1.932353,2.70154 0.458455,3.739541 0.637528,3.326067 -1.788036,4.128552 -3.658114,1.210269 -8.775986,1.633718 -12.211459,1.010361 z"
           id="path7149"
           sodipodi:nodetypes="sscssscccsscscscccssscssssscsssssccccscssscssssssss" />
      </g>
    </g>
  </g>
</svg>
