<?xml version="1.0" encoding="UTF-8" standalone="no"?>
<svg
   width="100%"
   height="100%"
   viewBox="0 0 256 256"
   version="1.1"
   xml:space="preserve"
   style="fill-rule:evenodd;clip-rule:evenodd;stroke-linejoin:round;"
   id="svg5"
   xmlns="http://www.w3.org/2000/svg"
   xmlns:svg="http://www.w3.org/2000/svg"
   xmlns:serif="http://www.serif.com/"><defs
   id="defs9" />
    <g
   id="Ebene-1"
   serif:id="Ebene 1"><path
   id="path848"
   style="fill:#ffffff;stroke-width:0.811679;stroke-linecap:round;stroke-linejoin:round;paint-order:stroke fill markers;fill-opacity:1"
   d="M 124.0918 38.25 L 124.0918 62.623047 A 65.656311 65.656311 0 0 0 62.646484 123.79102 L 38.550781 123.79102 L 38.550781 132.20898 L 62.646484 132.20898 A 65.656311 65.656311 0 0 0 124.0918 193.37695 L 124.0918 217.75 L 132.50977 217.75 L 132.50977 193.33203 A 65.656311 65.656311 0 0 0 193.35352 132.20898 L 218.05273 132.20898 L 218.05273 123.79102 L 193.35352 123.79102 A 65.656311 65.656311 0 0 0 132.50977 62.667969 L 132.50977 38.25 L 124.0918 38.25 z M 124.0918 74.857422 L 124.0918 91.837891 A 36.441887 36.441887 0 0 0 91.859375 123.79102 L 74.880859 123.79102 A 53.452536 53.452536 0 0 1 124.0918 74.857422 z M 132.50977 74.904297 A 53.452536 53.452536 0 0 1 181.11914 123.79102 L 164.14062 123.79102 A 36.441887 36.441887 0 0 0 132.50977 91.880859 L 132.50977 74.904297 z M 124.0918 98.638672 L 124.0918 113.29492 L 132.50977 113.29492 L 132.50977 98.6875 A 29.668302 29.668302 0 0 1 157.33594 123.79102 L 143.00586 123.79102 L 143.00586 132.20898 L 157.33594 132.20898 A 29.668302 29.668302 0 0 1 132.50977 157.3125 L 132.50977 142.70508 L 124.0918 142.70508 L 124.0918 157.36133 A 29.668302 29.668302 0 0 1 98.664062 132.20898 L 113.5957 132.20898 L 113.5957 123.79102 L 98.664062 123.79102 A 29.668302 29.668302 0 0 1 124.0918 98.638672 z M 74.880859 132.20898 L 91.859375 132.20898 A 36.441887 36.441887 0 0 0 124.0918 164.16211 L 124.0918 181.14258 A 53.452536 53.452536 0 0 1 74.880859 132.20898 z M 164.14062 132.20898 L 181.11914 132.20898 A 53.452536 53.452536 0 0 1 132.50977 181.0957 L 132.50977 164.11914 A 36.441887 36.441887 0 0 0 164.14062 132.20898 z " />
        <circle
   id="path846"
   cx="128"
   cy="128"
   r="117.867"
   style="fill:none;stroke:white;stroke-width:11.04px;" />

    </g>
</svg>
