<?xml version="1.0" encoding="UTF-8" standalone="no"?>
<svg
   width="100%"
   height="100%"
   viewBox="0 0 67.733332 67.733335"
   version="1.1"
   id="svg3"
   xmlns="http://www.w3.org/2000/svg"
   xmlns:svg="http://www.w3.org/2000/svg">
  <path
     id="team"
     fill= "currentColor"
     d="m 33.856806,12.378642 c -8.022722,-4.48e-4 -14.526,6.50283 -14.525551,14.525551 3.63e-4,8.022146 6.503404,14.525998 14.525551,14.52555 8.021572,-3.64e-4 14.525185,-6.503978 14.52555,-14.52555 4.47e-4,-8.022146 -6.503405,-14.525187 -14.52555,-14.525551 z M 13.716095,26.534868 c -4.1966653,7.59e-4 -7.5982657,3.403164 -7.5980352,7.599829 -2.314e-4,4.196665 3.4013699,7.599069 7.5980352,7.599828 3.543547,-0.01057 6.453487,-1.796491 7.23409,-5.253007 C 18.85256,34.179687 17.706251,30.592313 17.391408,27.494035 16.267246,26.86836 15.00264,26.538356 13.716095,26.534868 Z m 40.301141,0 c -1.286544,0.0035 -2.55115,0.333492 -3.675312,0.959167 -0.314843,3.098278 -1.461152,6.685652 -3.558777,8.987483 0.780603,3.456516 3.690542,5.242439 7.234089,5.253007 4.196665,-7.59e-4 7.598267,-3.403163 7.598036,-7.599828 2.3e-4,-4.196665 -3.401371,-7.59907 -7.598036,-7.599829 z M 13.873865,42.785126 C 7.6718665,42.750382 1.471031,44.792824 1.471031,49.018814 h 9.112981 c 2.206909,-2.435263 5.900144,-4.16735 10.249639,-5.222528 -2.067414,-0.655721 -4.51034,-0.997437 -6.959786,-1.01116 z m 39.985602,0 c -2.449446,0.01372 -4.892372,0.355439 -6.959786,1.01116 4.349495,1.055178 8.042731,2.787265 10.249639,5.222528 h 9.112981 c 0,-4.22599 -6.200837,-6.268432 -12.402834,-6.233688 z M 33.867563,43.437719 C 22.013262,43.504129 10.15911,47.542916 10.15911,55.354694 h 47.416904 c 0,-8.077424 -11.854148,-11.983387 -23.708451,-11.916975 z" />
</svg>
