<?xml version="1.0" encoding="UTF-8" standalone="no"?>
<!-- Created with Inkscape (http://www.inkscape.org/) -->

<svg
   width="256"
   height="256"
   viewBox="0 0 67.733332 67.733335"
   version="1.1"
   id="svg5"
   inkscape:version="1.1.1 (3bf5ae0d25, 2021-09-20)"
   sodipodi:docname="type.svg"
   xmlns:inkscape="http://www.inkscape.org/namespaces/inkscape"
   xmlns:sodipodi="http://sodipodi.sourceforge.net/DTD/sodipodi-0.dtd"
   xmlns="http://www.w3.org/2000/svg"
   xmlns:svg="http://www.w3.org/2000/svg">
  <sodipodi:namedview
     id="namedview7"
     pagecolor="#505050"
     bordercolor="#ffffff"
     borderopacity="1"
     inkscape:pageshadow="0"
     inkscape:pageopacity="0"
     inkscape:pagecheckerboard="1"
     inkscape:document-units="mm"
     showgrid="false"
     units="px"
     width="256px"
     inkscape:zoom="2.007539"
     inkscape:cx="130.25899"
     inkscape:cy="87.42047"
     inkscape:window-width="1920"
     inkscape:window-height="1009"
     inkscape:window-x="1912"
     inkscape:window-y="-8"
     inkscape:window-maximized="1"
     inkscape:current-layer="g5549" />
  <defs
     id="defs2" />
  <g
     inkscape:label="Ebene 1"
     inkscape:groupmode="layer"
     id="layer1">
    <circle
       style="fill:none;stroke:#ffffff;stroke-width:2.92182;stroke-linejoin:round;stroke-miterlimit:4;stroke-dasharray:none;stroke-opacity:1"
       id="path846"
       cx="33.866665"
       cy="33.866665"
       r="31.185663" />
    <g
       id="g5549"
       transform="translate(16.588362,-1.3978957)">
      <path
         style="fill:#ffffff;fill-opacity:1;stroke-width:0.21328"
         d="m 1.3888974,52.550793 c -1e-7,-3.139405 0.227284,-4.376154 1.190495,-6.477996 0.9047659,-1.974309 1.7763231,-3.159593 3.74751,-5.096478 2.1389521,-2.101734 4.1300556,-3.591043 9.0809126,-6.792364 6.818549,-4.409009 9.177054,-6.168372 11.026496,-8.225396 2.242396,-2.494084 2.894351,-4.296729 2.89435,-8.002835 l 0,-2.6329 1.919526,0 1.919526,0 -10e-7,2.655509 c 0,3.147466 -0.226967,4.375532 -1.201738,6.502333 -1.793279,3.912657 -4.70589,6.598645 -12.994754,11.983667 -5.474095,3.55635 -6.297438,4.126538 -8.340089,5.775737 -2.1425366,1.729846 -3.5916947,3.425432 -4.5093425,5.276163 -0.7802751,1.573672 -0.787844,1.614473 -0.8605181,4.638854 l -0.07331,3.051215 -1.8995307,10e-7 -1.8995283,-10e-7 z m 27.9064406,-0.395707 -0.07332,-3.051218 -0.837724,-1.694114 c -1.047871,-2.119089 -3.310183,-4.443933 -6.520458,-6.70069 -1.231696,-0.865858 -2.320261,-1.642917 -2.419033,-1.7268 -0.155893,-0.13239 2.452731,-1.980728 3.200386,-2.267629 0.355602,-0.136456 3.860323,2.517406 5.594597,4.236371 1.858713,1.842308 2.865537,3.219653 3.726185,5.097454 0.974772,2.126801 1.201739,3.354867 1.201739,6.502333 l 0,2.655509 -1.899526,10e-7 -1.899527,-10e-7 z m -21.9345826,-0.361273 -1e-7,-1.492965 9.9175487,10e-7 9.917551,0 -1e-6,1.492963 1e-6,1.492965 -9.917551,0 -9.9175487,-10e-7 z m 2.138439,-5.552408 c 0.3747251,-0.473129 0.9917006,-1.096974 1.3710576,-1.386324 l 0.689739,-0.526091 5.775404,-10e-7 5.7754,10e-7 0.647494,0.544832 c 0.356122,0.299655 0.947408,0.923501 1.313969,1.386324 l 0.666476,0.841493 -8.46043,-10e-7 -8.4604277,0 z M 10.338933,32.931044 C 8.6189494,31.735969 6.0664294,29.448807 4.7313024,27.906381 3.5487456,26.540213 1.9525935,23.388956 1.6201404,21.764065 1.4929574,21.142442 1.3888973,19.438863 1.3888974,17.978334 l 0,-2.655511 1.899528,0 1.8995271,1e-6 0.07331,3.051216 0.07332,3.051219 0.8377239,1.694111 c 1.047871,2.119089 3.3101828,4.443935 6.5204578,6.700693 1.231697,0.865857 2.320261,1.642915 2.419033,1.726797 0.151276,0.12847 -2.443157,1.977056 -3.161731,2.252798 -0.127913,0.04908 -0.852924,-0.341791 -1.61114,-0.868614 z M 10.0491,24.867132 8.7803898,23.534128 13.096873,23.476347 c 2.374065,-0.03178 6.202842,-0.03178 8.508393,1e-6 l 4.19191,0.05778 -1.30463,1.333004 -1.304631,1.333005 -5.935053,0 -5.935052,-1e-6 z m -2.6883446,-6.131818 3e-7,-1.492965 9.9175483,10e-7 9.91755,0 0,1.492963 1e-6,1.492965 -9.917551,0 -9.9175483,-1e-6 z"
         id="path5551" />
    </g>
  </g>
</svg>
